<svg width="960" height="540" xmlns="http://www.w3.org/2000/svg" stroke="null" style="vector-effect: non-scaling-stroke;" version="1.1">

 <g stroke="null">
  <title stroke="null">Layer 1</title>
  <g transform="rotate(180 329 268.5)" stroke="null" id="svg_9">
   <rect stroke="null" x="-304" y="-5.00001" id="svg_1" fill="#ffffff" height="545.98892" width="1266.00003"/>
   <path stroke="null" id="svg_2" fill="#ffffff" d="m335.59376,-5.00001l27.69375,0l0,23.25508l-176.7125,0l0,24.26617l1.31875,0l0,23.25508l-200.45,0l0,24.26617l269.02501,0l0,23.25508l88.35625,0l0,24.26617l-197.8125,0l0,23.25508l19.78125,0l0,24.26617l284.85001,0l0,23.25508l-474.75001,0l0,24.26617l428.59376,0l0,23.25508l-357.38126,0l0,24.26617l238.69375,0l0,23.25508l-180.66875,0l0,24.26617l92.3125,0l0,23.25508l-100.225,0l0,24.26617l-39.5625,0l0,23.25508l233.41875,0l0,24.26617l141.10625,0l0,23.25508l-497.16876,0l0,24.26617l247.92501,0l0,23.25508l230.78125,0l0,24.26617l-175.39375,0l0,23.25508l-543.32501,0l0,-23.25508l0,0l0,-24.26617l0,0l0,-23.25508l0,0l0,-24.26617l0,0l0,-23.25508l0,0l0,-24.26617l0,0l0,-23.25508l0,0l0,-24.26617l0,0l0,-23.25508l0,0l0,-24.26617l0,0l0,-23.25508l0,0l0,-24.26617l0,0l0,-23.25508l0,0l0,-24.26617l0,0l0,-23.25508l0,0l0,-24.26617l0,0l0,-23.25508l0,0l0,-24.26617l0,0l0,-23.25508l0,0l0,-24.26617l0,0l0,-23.25508l0,0l0,-24.26617l0,0l0,-23.25508l0,0l639.59376,0z"/>
   <path stroke="null" id="svg_3" fill="#f7f1e8" d="m145.69376,-5.00001l32.96875,0l0,23.25508l-199.13125,0l0,24.26617l282.21251,0l0,23.25508l-17.14375,0l0,24.26617l-61.98125,0l0,23.25508l-200.45,0l0,24.26617l39.5625,0l0,23.25508l39.5625,0l0,24.26617l-104.18125,0l0,23.25508l395.62501,0l0,24.26617l-83.08125,0l0,23.25508l-290.12501,0l0,24.26617l292.76251,0l0,23.25508l-290.12501,0l0,24.26617l123.9625,0l0,23.25508l-48.79375,0l0,24.26617l120.00625,0l0,23.25508l42.2,0l0,24.26617l18.4625,0l0,23.25508l-135.83125,0l0,24.26617l116.05,0l0,23.25508l-200.45,0l0,24.26617l179.35,0l0,23.25508l-501.12501,0l0,-23.25508l0,0l0,-24.26617l0,0l0,-23.25508l0,0l0,-24.26617l0,0l0,-23.25508l0,0l0,-24.26617l0,0l0,-23.25508l0,0l0,-24.26617l0,0l0,-23.25508l0,0l0,-24.26617l0,0l0,-23.25508l0,0l0,-24.26617l0,0l0,-23.25508l0,0l0,-24.26617l0,0l0,-23.25508l0,0l0,-24.26617l0,0l0,-23.25508l0,0l0,-24.26617l0,0l0,-23.25508l0,0l0,-24.26617l0,0l0,-23.25508l0,0l0,-24.26617l0,0l0,-23.25508l0,0l449.69376,0z"/>
   <path stroke="null" id="svg_4" fill="#efe3d2" d="m-44.20625,-5.00001l187.2625,0l0,23.25508l69.89375,0l0,24.26617l-325.73126,0l0,23.25508l77.80625,0l0,24.26617l15.825,0l0,23.25508l-129.2375,0l0,24.26617l97.5875,0l0,23.25508l192.5375,0l0,24.26617l-191.21875,0l0,23.25508l180.66875,0l0,24.26617l-280.89376,0l0,23.25508l399.58126,0l0,24.26617l-22.41875,0l0,23.25508l-117.36875,0l0,24.26617l-236.05625,0l0,23.25508l374.52501,0l0,24.26617l-188.58125,0l0,23.25508l-17.14375,0l0,24.26617l-79.125,0l0,23.25508l193.85625,0l0,24.26617l-213.6375,0l0,23.25508l216.275,0l0,24.26617l-73.85,0l0,23.25508l-390.35001,0l0,-23.25508l0,0l0,-24.26617l0,0l0,-23.25508l0,0l0,-24.26617l0,0l0,-23.25508l0,0l0,-24.26617l0,0l0,-23.25508l0,0l0,-24.26617l0,0l0,-23.25508l0,0l0,-24.26617l0,0l0,-23.25508l0,0l0,-24.26617l0,0l0,-23.25508l0,0l0,-24.26617l0,0l0,-23.25508l0,0l0,-24.26617l0,0l0,-23.25508l0,0l0,-24.26617l0,0l0,-23.25508l0,0l0,-24.26617l0,0l0,-23.25508l0,0l0,-24.26617l0,0l0,-23.25508l0,0l259.79376,0z"/>
   <path stroke="null" id="svg_5" fill="#e6d5bc" d="m73.16251,-5.00001l-155.6125,0l0,23.25508l-32.96875,0l0,24.26617l143.74375,0l0,23.25508l137.15,0l0,24.26617l-262.43126,0l0,23.25508l181.9875,0l0,24.26617l-3.95625,0l0,23.25508l-58.025,0l0,24.26617l-50.1125,0l0,23.25508l125.28125,0l0,24.26617l22.41875,0l0,23.25508l-234.7375,0l0,24.26617l122.64375,0l0,23.25508l-34.2875,0l0,24.26617l-146.38125,0l0,23.25508l172.75625,0l0,24.26617l71.2125,0l0,23.25508l-36.925,0l0,24.26617l-174.075,0l0,23.25508l0,0l0,24.26617l3.95625,0l0,23.25508l32.96875,0l0,24.26617l81.7625,0l0,23.25508l-283.53126,0l0,-23.25508l0,0l0,-24.26617l0,0l0,-23.25508l0,0l0,-24.26617l0,0l0,-23.25508l0,0l0,-24.26617l0,0l0,-23.25508l0,0l0,-24.26617l0,0l0,-23.25508l0,0l0,-24.26617l0,0l0,-23.25508l0,0l0,-24.26617l0,0l0,-23.25508l0,0l0,-24.26617l0,0l0,-23.25508l0,0l0,-24.26617l0,0l0,-23.25508l0,0l0,-24.26617l0,0l0,-23.25508l0,0l0,-24.26617l0,0l0,-23.25508l0,0l0,-24.26617l0,0l0,-23.25508l0,0l377.16251,0z"/>
   <path stroke="null" id="svg_6" fill="#ddc7a6" d="m-81.13125,-5.00001l54.06875,0l0,23.25508l-52.75,0l0,24.26617l-120.00625,0l0,23.25508l44.8375,0l0,24.26617l172.75625,0l0,23.25508l47.475,0l0,24.26617l-168.8,0l0,23.25508l22.41875,0l0,24.26617l-25.05625,0l0,23.25508l-116.05,0l0,24.26617l104.18125,0l0,23.25508l-92.3125,0l0,24.26617l2.6375,0l0,23.25508l-9.23125,0l0,24.26617l168.8,0l0,23.25508l-134.5125,0l0,24.26617l122.64375,0l0,23.25508l-5.275,0l0,24.26617l-126.6,0l0,23.25508l25.05625,0l0,24.26617l180.66875,0l0,23.25508l-117.36875,0l0,24.26617l116.05,0l0,23.25508l-316.50001,0l0,-23.25508l0,0l0,-24.26617l0,0l0,-23.25508l0,0l0,-24.26617l0,0l0,-23.25508l0,0l0,-24.26617l0,0l0,-23.25508l0,0l0,-24.26617l0,0l0,-23.25508l0,0l0,-24.26617l0,0l0,-23.25508l0,0l0,-24.26617l0,0l0,-23.25508l0,0l0,-24.26617l0,0l0,-23.25508l0,0l0,-24.26617l0,0l0,-23.25508l0,0l0,-24.26617l0,0l0,-23.25508l0,0l0,-24.26617l0,0l0,-23.25508l0,0l0,-24.26617l0,0l0,-23.25508l0,0l222.86875,0z"/>
   <path stroke="null" id="svg_7" fill="#d4b990" d="m-227.5125,-3.98892l199.13125,0l0,23.25508l-121.325,0l0,24.26617l125.28125,0l0,23.25508l-129.2375,0l0,24.26617l93.63125,0l0,23.25508l-88.35625,0l0,24.26617l13.1875,0l0,23.25508l89.675,0l0,24.26617l-158.25,0l0,23.25508l101.54375,0l0,24.26617l-117.36875,0l0,23.25508l110.775,0l0,24.26617l-97.5875,0l0,23.25508l9.23125,0l0,24.26617l-65.9375,0l0,23.25508l35.60625,0l0,24.26617l97.5875,0l0,23.25508l-48.79375,0l0,24.26617l-46.15625,0l0,23.25508l112.09375,0l0,24.26617l-101.54375,0l0,23.25508l48.79375,0l0,24.26617l-10.55,0l0,23.25508l-127.91875,0l0,-23.25508l0,0l0,-24.26617l0,0l0,-23.25508l0,0l0,-24.26617l0,0l0,-23.25508l0,0l0,-24.26617l0,0l0,-23.25508l0,0l0,-24.26617l0,0l0,-23.25508l0,0l0,-24.26617l0,0l0,-23.25508l0,0l0,-24.26617l0,0l0,-23.25508l0,0l0,-24.26617l0,0l0,-23.25508l0,0l0,-24.26617l0,0l0,-23.25508l0,0l0,-24.26617l0,0l0,-23.25508l0,0l0,-24.26617l0,0l0,-23.25508l0,0l0,-24.26617l0,0l0,-23.25508l0,0l76.4875,0z"/>
   <path stroke="null" id="svg_8" fill="#caac7b" d="m-189.26875,-5.00001l-79.125,0l0,23.25508l21.1,0l0,24.26617l125.28125,0l0,23.25508l-17.14375,0l0,24.26617l-71.2125,0l0,23.25508l-60.6625,0l0,24.26617l22.41875,0l0,23.25508l9.23125,0l0,24.26617l36.925,0l0,23.25508l-90.99375,0l0,24.26617l137.15,0l0,23.25508l-3.95625,0l0,24.26617l35.60625,0l0,23.25508l-14.50625,0l0,24.26617l-68.575,0l0,23.25508l67.25625,0l0,24.26617l-5.275,0l0,23.25508l-117.36875,0l0,24.26617l130.55625,0l0,23.25508l-51.43125,0l0,24.26617l-31.65,0l0,23.25508l56.70625,0l0,24.26617l-69.89375,0l0,23.25508l-75.16875,0l0,-23.25508l0,0l0,-24.26617l0,0l0,-23.25508l0,0l0,-24.26617l0,0l0,-23.25508l0,0l0,-24.26617l0,0l0,-23.25508l0,0l0,-24.26617l0,0l0,-23.25508l0,0l0,-24.26617l0,0l0,-23.25508l0,0l0,-24.26617l0,0l0,-23.25508l0,0l0,-24.26617l0,0l0,-23.25508l0,0l0,-24.26617l0,0l0,-23.25508l0,0l0,-24.26617l0,0l0,-23.25508l0,0l0,-24.26617l0,0l0,-23.25508l0,0l0,-24.26617l0,0l0,-23.25508l0,0l114.73125,0z"/>
  </g>
 </g>
</svg>