<svg id="visual" viewBox="0 0 960 540" width="960" height="540" xmlns="http://www.w3.org/2000/svg" xmlns:xlink="http://www.w3.org/1999/xlink" version="1.1"><rect x="0" y="0" width="960" height="540" fill="#ffffff"></rect><defs><linearGradient id="grad1_0" x1="43.8%" y1="0%" x2="100%" y2="100%"><stop offset="14.444444444444446%" stop-color="#caac7b" stop-opacity="1"></stop><stop offset="85.55555555555554%" stop-color="#caac7b" stop-opacity="1"></stop></linearGradient></defs><defs><linearGradient id="grad1_1" x1="43.8%" y1="0%" x2="100%" y2="100%"><stop offset="14.444444444444446%" stop-color="#caac7b" stop-opacity="1"></stop><stop offset="85.55555555555554%" stop-color="#d2b78d" stop-opacity="1"></stop></linearGradient></defs><defs><linearGradient id="grad1_2" x1="43.8%" y1="0%" x2="100%" y2="100%"><stop offset="14.444444444444446%" stop-color="#dac3a0" stop-opacity="1"></stop><stop offset="85.55555555555554%" stop-color="#d2b78d" stop-opacity="1"></stop></linearGradient></defs><defs><linearGradient id="grad1_3" x1="43.8%" y1="0%" x2="100%" y2="100%"><stop offset="14.444444444444446%" stop-color="#dac3a0" stop-opacity="1"></stop><stop offset="85.55555555555554%" stop-color="#e2cfb2" stop-opacity="1"></stop></linearGradient></defs><defs><linearGradient id="grad1_4" x1="43.8%" y1="0%" x2="100%" y2="100%"><stop offset="14.444444444444446%" stop-color="#eadbc5" stop-opacity="1"></stop><stop offset="85.55555555555554%" stop-color="#e2cfb2" stop-opacity="1"></stop></linearGradient></defs><defs><linearGradient id="grad1_5" x1="43.8%" y1="0%" x2="100%" y2="100%"><stop offset="14.444444444444446%" stop-color="#eadbc5" stop-opacity="1"></stop><stop offset="85.55555555555554%" stop-color="#f1e7d8" stop-opacity="1"></stop></linearGradient></defs><defs><linearGradient id="grad1_6" x1="43.8%" y1="0%" x2="100%" y2="100%"><stop offset="14.444444444444446%" stop-color="#f8f3eb" stop-opacity="1"></stop><stop offset="85.55555555555554%" stop-color="#f1e7d8" stop-opacity="1"></stop></linearGradient></defs><defs><linearGradient id="grad1_7" x1="43.8%" y1="0%" x2="100%" y2="100%"><stop offset="14.444444444444446%" stop-color="#f8f3eb" stop-opacity="1"></stop><stop offset="85.55555555555554%" stop-color="#ffffff" stop-opacity="1"></stop></linearGradient></defs><defs><linearGradient id="grad2_0" x1="0%" y1="0%" x2="56.3%" y2="100%"><stop offset="14.444444444444446%" stop-color="#caac7b" stop-opacity="1"></stop><stop offset="85.55555555555554%" stop-color="#caac7b" stop-opacity="1"></stop></linearGradient></defs><defs><linearGradient id="grad2_1" x1="0%" y1="0%" x2="56.3%" y2="100%"><stop offset="14.444444444444446%" stop-color="#d2b78d" stop-opacity="1"></stop><stop offset="85.55555555555554%" stop-color="#caac7b" stop-opacity="1"></stop></linearGradient></defs><defs><linearGradient id="grad2_2" x1="0%" y1="0%" x2="56.3%" y2="100%"><stop offset="14.444444444444446%" stop-color="#d2b78d" stop-opacity="1"></stop><stop offset="85.55555555555554%" stop-color="#dac3a0" stop-opacity="1"></stop></linearGradient></defs><defs><linearGradient id="grad2_3" x1="0%" y1="0%" x2="56.3%" y2="100%"><stop offset="14.444444444444446%" stop-color="#e2cfb2" stop-opacity="1"></stop><stop offset="85.55555555555554%" stop-color="#dac3a0" stop-opacity="1"></stop></linearGradient></defs><defs><linearGradient id="grad2_4" x1="0%" y1="0%" x2="56.3%" y2="100%"><stop offset="14.444444444444446%" stop-color="#e2cfb2" stop-opacity="1"></stop><stop offset="85.55555555555554%" stop-color="#eadbc5" stop-opacity="1"></stop></linearGradient></defs><defs><linearGradient id="grad2_5" x1="0%" y1="0%" x2="56.3%" y2="100%"><stop offset="14.444444444444446%" stop-color="#f1e7d8" stop-opacity="1"></stop><stop offset="85.55555555555554%" stop-color="#eadbc5" stop-opacity="1"></stop></linearGradient></defs><defs><linearGradient id="grad2_6" x1="0%" y1="0%" x2="56.3%" y2="100%"><stop offset="14.444444444444446%" stop-color="#f1e7d8" stop-opacity="1"></stop><stop offset="85.55555555555554%" stop-color="#f8f3eb" stop-opacity="1"></stop></linearGradient></defs><defs><linearGradient id="grad2_7" x1="0%" y1="0%" x2="56.3%" y2="100%"><stop offset="14.444444444444446%" stop-color="#ffffff" stop-opacity="1"></stop><stop offset="85.55555555555554%" stop-color="#f8f3eb" stop-opacity="1"></stop></linearGradient></defs><g transform="translate(960, 0)"><path d="M0 432C-71.5 414.3 -142.9 396.7 -209.5 362.9C-276.1 329.1 -337.8 279.2 -374.1 216C-410.4 152.8 -421.2 76.4 -432 0L0 0Z" fill="#fcf9f5"></path><path d="M0 378C-62.5 362.5 -125 347.1 -183.3 317.5C-241.6 287.9 -295.6 244.3 -327.4 189C-359.1 133.7 -368.5 66.9 -378 0L0 0Z" fill="#f5ede2"></path><path d="M0 324C-53.6 310.7 -107.2 297.5 -157.1 272.1C-207.1 246.8 -253.4 209.4 -280.6 162C-307.8 114.6 -315.9 57.3 -324 0L0 0Z" fill="#eee1ce"></path><path d="M0 270C-44.7 259 -89.3 247.9 -130.9 226.8C-172.6 205.7 -211.2 174.5 -233.8 135C-256.5 95.5 -263.2 47.8 -270 0L0 0Z" fill="#e6d5bc"></path><path d="M0 216C-35.7 207.2 -71.5 198.3 -104.7 181.4C-138 164.5 -168.9 139.6 -187.1 108C-205.2 76.4 -210.6 38.2 -216 0L0 0Z" fill="#dec9a9"></path><path d="M0 162C-26.8 155.4 -53.6 148.7 -78.6 136.1C-103.5 123.4 -126.7 104.7 -140.3 81C-153.9 57.3 -157.9 28.7 -162 0L0 0Z" fill="#d6bd96"></path><path d="M0 108C-17.9 103.6 -35.7 99.2 -52.4 90.7C-69 82.3 -84.5 69.8 -93.5 54C-102.6 38.2 -105.3 19.1 -108 0L0 0Z" fill="#ceb284"></path><path d="M0 54C-8.9 51.8 -17.9 49.6 -26.2 45.4C-34.5 41.1 -42.2 34.9 -46.8 27C-51.3 19.1 -52.6 9.6 -54 0L0 0Z" fill="#caac7b"></path></g><g transform="translate(0, 540)"><path d="M0 -432C92.5 -430.5 184.9 -428.9 216 -374.1C247.1 -319.3 216.7 -211.2 242.5 -140C268.3 -68.8 350.1 -34.4 432 0L0 0Z" fill="#fcf9f5"></path><path d="M0 -378C80.9 -376.7 161.8 -375.3 189 -327.4C216.2 -279.4 189.6 -184.8 212.2 -122.5C234.7 -60.2 306.4 -30.1 378 0L0 0Z" fill="#f5ede2"></path><path d="M0 -324C69.4 -322.8 138.7 -321.7 162 -280.6C185.3 -239.5 162.5 -158.4 181.9 -105C201.2 -51.6 262.6 -25.8 324 0L0 0Z" fill="#eee1ce"></path><path d="M0 -270C57.8 -269 115.6 -268.1 135 -233.8C154.4 -199.6 135.5 -132 151.6 -87.5C167.7 -43 218.8 -21.5 270 0L0 0Z" fill="#e6d5bc"></path><path d="M0 -216C46.2 -215.2 92.5 -214.5 108 -187.1C123.5 -159.7 108.4 -105.6 121.2 -70C134.1 -34.4 175.1 -17.2 216 0L0 0Z" fill="#dec9a9"></path><path d="M0 -162C34.7 -161.4 69.4 -160.8 81 -140.3C92.6 -119.7 81.3 -79.2 90.9 -52.5C100.6 -25.8 131.3 -12.9 162 0L0 0Z" fill="#d6bd96"></path><path d="M0 -108C23.1 -107.6 46.2 -107.2 54 -93.5C61.8 -79.8 54.2 -52.8 60.6 -35C67.1 -17.2 87.5 -8.6 108 0L0 0Z" fill="#ceb284"></path><path d="M0 -54C11.6 -53.8 23.1 -53.6 27 -46.8C30.9 -39.9 27.1 -26.4 30.3 -17.5C33.5 -8.6 43.8 -4.3 54 0L0 0Z" fill="#caac7b"></path></g></svg>