<svg id="visual" viewBox="0 0 960 300" width="960" height="300" xmlns="http://www.w3.org/2000/svg" xmlns:xlink="http://www.w3.org/1999/xlink" version="1.1"><rect x="0" y="0" width="960" height="300" fill="#ffffff"></rect><path d="M0 65L22.8 63.8C45.7 62.7 91.3 60.3 137 62.3C182.7 64.3 228.3 70.7 274 80.5C319.7 90.3 365.3 103.7 411.2 104.3C457 105 503 93 548.8 98.2C594.7 103.3 640.3 125.7 686 133.8C731.7 142 777.3 136 823 128.7C868.7 121.3 914.3 112.7 937.2 108.3L960 104L960 301L937.2 301C914.3 301 868.7 301 823 301C777.3 301 731.7 301 686 301C640.3 301 594.7 301 548.8 301C503 301 457 301 411.2 301C365.3 301 319.7 301 274 301C228.3 301 182.7 301 137 301C91.3 301 45.7 301 22.8 301L0 301Z" fill="#caac7b"></path><path d="M0 133L22.8 137.3C45.7 141.7 91.3 150.3 137 148.2C182.7 146 228.3 133 274 123C319.7 113 365.3 106 411.2 108.7C457 111.3 503 123.7 548.8 125.2C594.7 126.7 640.3 117.3 686 124C731.7 130.7 777.3 153.3 823 155C868.7 156.7 914.3 137.3 937.2 127.7L960 118L960 301L937.2 301C914.3 301 868.7 301 823 301C777.3 301 731.7 301 686 301C640.3 301 594.7 301 548.8 301C503 301 457 301 411.2 301C365.3 301 319.7 301 274 301C228.3 301 182.7 301 137 301C91.3 301 45.7 301 22.8 301L0 301Z" fill="#aa9169"></path><path d="M0 155L22.8 164.3C45.7 173.7 91.3 192.3 137 201C182.7 209.7 228.3 208.3 274 197.8C319.7 187.3 365.3 167.7 411.2 165.3C457 163 503 178 548.8 179.2C594.7 180.3 640.3 167.7 686 164.7C731.7 161.7 777.3 168.3 823 170.7C868.7 173 914.3 171 937.2 170L960 169L960 301L937.2 301C914.3 301 868.7 301 823 301C777.3 301 731.7 301 686 301C640.3 301 594.7 301 548.8 301C503 301 457 301 411.2 301C365.3 301 319.7 301 274 301C228.3 301 182.7 301 137 301C91.3 301 45.7 301 22.8 301L0 301Z" fill="#8a7658"></path><path d="M0 200L22.8 199.3C45.7 198.7 91.3 197.3 137 196.8C182.7 196.3 228.3 196.7 274 204.2C319.7 211.7 365.3 226.3 411.2 226.7C457 227 503 213 548.8 207.3C594.7 201.7 640.3 204.3 686 209.5C731.7 214.7 777.3 222.3 823 227C868.7 231.7 914.3 233.3 937.2 234.2L960 235L960 301L937.2 301C914.3 301 868.7 301 823 301C777.3 301 731.7 301 686 301C640.3 301 594.7 301 548.8 301C503 301 457 301 411.2 301C365.3 301 319.7 301 274 301C228.3 301 182.7 301 137 301C91.3 301 45.7 301 22.8 301L0 301Z" fill="#6c5d47"></path><path d="M0 272L22.8 270.8C45.7 269.7 91.3 267.3 137 261.2C182.7 255 228.3 245 274 241.2C319.7 237.3 365.3 239.7 411.2 239C457 238.3 503 234.7 548.8 231.7C594.7 228.7 640.3 226.3 686 225.7C731.7 225 777.3 226 823 230.7C868.7 235.3 914.3 243.7 937.2 247.8L960 252L960 301L937.2 301C914.3 301 868.7 301 823 301C777.3 301 731.7 301 686 301C640.3 301 594.7 301 548.8 301C503 301 457 301 411.2 301C365.3 301 319.7 301 274 301C228.3 301 182.7 301 137 301C91.3 301 45.7 301 22.8 301L0 301Z" fill="#4f4537"></path></svg>