<svg id="visual" viewBox="0 0 960 540" width="960" height="540" xmlns="http://www.w3.org/2000/svg" xmlns:xlink="http://www.w3.org/1999/xlink" version="1.1"><rect x="0" y="0" width="960" height="540" fill="#ffffff"></rect><path d="M485 0L506 0L506 23L372 23L372 47L373 47L373 70L221 70L221 94L425 94L425 117L492 117L492 141L342 141L342 164L357 164L357 188L573 188L573 211L213 211L213 235L538 235L538 258L267 258L267 282L448 282L448 305L311 305L311 329L381 329L381 352L305 352L305 376L275 376L275 399L452 399L452 423L559 423L559 446L182 446L182 470L370 470L370 493L545 493L545 517L412 517L412 540L0 540L0 517L0 517L0 493L0 493L0 470L0 470L0 446L0 446L0 423L0 423L0 399L0 399L0 376L0 376L0 352L0 352L0 329L0 329L0 305L0 305L0 282L0 282L0 258L0 258L0 235L0 235L0 211L0 211L0 188L0 188L0 164L0 164L0 141L0 141L0 117L0 117L0 94L0 94L0 70L0 70L0 47L0 47L0 23L0 23L0 0L0 0Z" fill="#ffffff"></path><path d="M341 0L366 0L366 23L215 23L215 47L429 47L429 70L416 70L416 94L369 94L369 117L217 117L217 141L247 141L247 164L277 164L277 188L198 188L198 211L498 211L498 235L435 235L435 258L215 258L215 282L437 282L437 305L217 305L217 329L311 329L311 352L274 352L274 376L365 376L365 399L397 399L397 423L411 423L411 446L308 446L308 470L396 470L396 493L244 493L244 517L380 517L380 540L0 540L0 517L0 517L0 493L0 493L0 470L0 470L0 446L0 446L0 423L0 423L0 399L0 399L0 376L0 376L0 352L0 352L0 329L0 329L0 305L0 305L0 282L0 282L0 258L0 258L0 235L0 235L0 211L0 211L0 188L0 188L0 164L0 164L0 141L0 141L0 117L0 117L0 94L0 94L0 70L0 70L0 47L0 47L0 23L0 23L0 0L0 0Z" fill="#f7f1e8"></path><path d="M197 0L339 0L339 23L392 23L392 47L145 47L145 70L204 70L204 94L216 94L216 117L118 117L118 141L192 141L192 164L338 164L338 188L193 188L193 211L330 211L330 235L117 235L117 258L420 258L420 282L403 282L403 305L314 305L314 329L135 329L135 352L419 352L419 376L276 376L276 399L263 399L263 423L203 423L203 446L350 446L350 470L188 470L188 493L352 493L352 517L296 517L296 540L0 540L0 517L0 517L0 493L0 493L0 470L0 470L0 446L0 446L0 423L0 423L0 399L0 399L0 376L0 376L0 352L0 352L0 329L0 329L0 305L0 305L0 282L0 282L0 258L0 258L0 235L0 235L0 211L0 211L0 188L0 188L0 164L0 164L0 141L0 141L0 117L0 117L0 94L0 94L0 70L0 70L0 47L0 47L0 23L0 23L0 0L0 0Z" fill="#efe3d2"></path><path d="M286 0L168 0L168 23L143 23L143 47L252 47L252 70L356 70L356 94L157 94L157 117L295 117L295 141L292 141L292 164L248 164L248 188L210 188L210 211L305 211L305 235L322 235L322 258L144 258L144 282L237 282L237 305L211 305L211 329L100 329L100 352L231 352L231 376L285 376L285 399L257 399L257 423L125 423L125 446L125 446L125 470L128 470L128 493L153 493L153 517L215 517L215 540L0 540L0 517L0 517L0 493L0 493L0 470L0 470L0 446L0 446L0 423L0 423L0 399L0 399L0 376L0 376L0 352L0 352L0 329L0 329L0 305L0 305L0 282L0 282L0 258L0 258L0 235L0 235L0 211L0 211L0 188L0 188L0 164L0 164L0 141L0 141L0 117L0 117L0 94L0 94L0 70L0 70L0 47L0 47L0 23L0 23L0 0L0 0Z" fill="#e6d5bc"></path><path d="M169 0L210 0L210 23L170 23L170 47L79 47L79 70L113 70L113 94L244 94L244 117L280 117L280 141L152 141L152 164L169 164L169 188L150 188L150 211L62 211L62 235L141 235L141 258L71 258L71 282L73 282L73 305L66 305L66 329L194 329L194 352L92 352L92 376L185 376L185 399L181 399L181 423L85 423L85 446L104 446L104 470L241 470L241 493L152 493L152 517L240 517L240 540L0 540L0 517L0 517L0 493L0 493L0 470L0 470L0 446L0 446L0 423L0 423L0 399L0 399L0 376L0 376L0 352L0 352L0 329L0 329L0 305L0 305L0 282L0 282L0 258L0 258L0 235L0 235L0 211L0 211L0 188L0 188L0 164L0 164L0 141L0 141L0 117L0 117L0 94L0 94L0 70L0 70L0 47L0 47L0 23L0 23L0 0L0 0Z" fill="#ddc7a6"></path><path d="M58 0L209 0L209 23L117 23L117 47L212 47L212 70L114 70L114 94L185 94L185 117L118 117L118 141L128 141L128 164L196 164L196 188L76 188L76 211L153 211L153 235L64 235L64 258L148 258L148 282L74 282L74 305L81 305L81 329L31 329L31 352L58 352L58 376L132 376L132 399L95 399L95 423L60 423L60 446L145 446L145 470L68 470L68 493L105 493L105 517L97 517L97 540L0 540L0 517L0 517L0 493L0 493L0 470L0 470L0 446L0 446L0 423L0 423L0 399L0 399L0 376L0 376L0 352L0 352L0 329L0 329L0 305L0 305L0 282L0 282L0 258L0 258L0 235L0 235L0 211L0 211L0 188L0 188L0 164L0 164L0 141L0 141L0 117L0 117L0 94L0 94L0 70L0 70L0 47L0 47L0 23L0 23L0 0L0 0Z" fill="#d4b990"></path><path d="M87 0L27 0L27 23L43 23L43 47L138 47L138 70L125 70L125 94L71 94L71 117L25 117L25 141L42 141L42 164L49 164L49 188L77 188L77 211L8 211L8 235L112 235L112 258L109 258L109 282L136 282L136 305L125 305L125 329L73 329L73 352L124 352L124 376L120 376L120 399L31 399L31 423L130 423L130 446L91 446L91 470L67 470L67 493L110 493L110 517L57 517L57 540L0 540L0 517L0 517L0 493L0 493L0 470L0 470L0 446L0 446L0 423L0 423L0 399L0 399L0 376L0 376L0 352L0 352L0 329L0 329L0 305L0 305L0 282L0 282L0 258L0 258L0 235L0 235L0 211L0 211L0 188L0 188L0 164L0 164L0 141L0 141L0 117L0 117L0 94L0 94L0 70L0 70L0 47L0 47L0 23L0 23L0 0L0 0Z" fill="#caac7b"></path></svg>